# xmcd
#
# Track frame offsets:
#	150
#	14688
#	27954
#	43532
#	58365
#	68895
#	83420
#	95648
#	105051
#	119469
#	132401
#	142102
#
# Disc length: 2099 seconds
#
# Revision: 0
# Processed by: cddbd v1.5.2PL0 Copyright (c) Steve Scherf et al.
# Submitted via: dBpowerAMP V4.0
#
DISCID=a508310c
DTITLE=Robert Bouchard - Miles and Memories
DYEAR=1900
DGENRE=Country
TTITLE0=Everybody's somebody's Darlin'
TTITLE1=Old Stompin' Ground
TTITLE2=Rose Coloured Glasses
TTITLE3=When the wind blows in Chicago
TTITLE4=My Lonesome Room
TTITLE5=20/20 Vision
TTITLE6=Shutters and Boards
TTITLE7=Go On and Break My Heart
TTITLE8=Round and round she goes
TTITLE9=Cousin Mary
TTITLE10=She's my Lady
TTITLE11=Wake up
EXTD=Robert Bouchard is known as Cape Breton's Country Gentleman, he's played all over Canada and the United States, recording in Nashville along the way. I am Billy Joyce, manager of Radio Richmond in Petit de Grat, NS
EXTT0=
EXTT1=
EXTT2=
EXTT3=
EXTT4=
EXTT5=
EXTT6=
EXTT7=
EXTT8=
EXTT9=
EXTT10=
EXTT11=
PLAYORDER=
